<svg xmlns="http://www.w3.org/2000/svg" xmlns:xlink="http://www.w3.org/1999/xlink" viewBox="0 0 470.32 531.19"><defs><style>.cls-1,.cls-14,.cls-3,.cls-4{fill:none;}.cls-2{fill:#231f20;}.cls-3,.cls-4{stroke:#231f20;}.cls-3{stroke-width:3.6px;}.cls-4{stroke-linecap:round;stroke-width:1.6px;}.cls-5{fill:url(#Capsules);}.cls-6{fill:#ffbc16;}.cls-7{fill:#f14422;}.cls-8{fill:#5561d9;}.cls-9{fill:#2ed3cc;}.cls-10{fill:#fe77de;}.cls-11{fill:url(#_10_dpi_40_);}.cls-12{fill:url(#_10_lpi_50_);}.cls-13{fill:url(#_10_dpi_40_3);}.cls-14{stroke:#000;stroke-miterlimit:10;stroke-width:5px;}.cls-15{fill:url(#_10_lpi_50_3);}</style><pattern id="Capsules" data-name="Capsules" width="57.6" height="57.6" patternUnits="userSpaceOnUse" viewBox="0 0 57.6 57.6"><rect class="cls-1" width="57.6" height="57.6"/><line class="cls-4" x1="58.11" y1="14.48" x2="62.26" y2="13.45"/><line class="cls-4" x1="25.8" y1="31.8" x2="23.59" y2="35.46"/><line class="cls-4" x1="23.23" y1="24.91" x2="24.99" y2="28.13"/><line class="cls-4" x1="21.75" y1="27.35" x2="21.97" y2="32.17"/><line class="cls-4" x1="30.78" y1="44.12" x2="31.58" y2="48.31"/><line class="cls-4" x1="17.5" y1="38.69" x2="16.71" y2="42.89"/><line class="cls-4" x1="9.87" y1="39.16" x2="13.17" y2="41.87"/><line class="cls-4" x1="17.5" y1="33.44" x2="20.8" y2="36.15"/><line class="cls-4" x1="21.67" y1="43.39" x2="20.2" y2="39.38"/><line class="cls-4" x1="9.45" y1="42.01" x2="5.25" y2="45.6"/><line class="cls-4" x1="15.12" y1="31.3" x2="19.23" y2="30.12"/><line class="cls-4" x1="23.79" y1="50.9" x2="27.23" y2="48.36"/><line class="cls-4" x1="15.11" y1="52.77" x2="17.32" y2="49.11"/><line class="cls-4" x1="33.75" y1="34.15" x2="35.43" y2="38.08"/><line class="cls-4" x1="41.75" y1="24.85" x2="41.2" y2="30.6"/><line class="cls-4" x1="30.57" y1="38.9" x2="28.44" y2="42.61"/><line class="cls-4" x1="39.67" y1="38.73" x2="36.36" y2="41.44"/><line class="cls-4" x1="38.59" y1="52.05" x2="41.91" y2="54.74"/><line class="cls-4" x1="36.91" y1="32.47" x2="40.2" y2="35.2"/><line class="cls-4" x1="30.08" y1="34.59" x2="31.57" y2="30.58"/><line class="cls-4" x1="34.28" y1="30.47" x2="37.92" y2="28.22"/><line class="cls-4" x1="10.02" y1="47.92" x2="12.5" y2="44.44"/><line class="cls-4" x1="41" y1="20.38" x2="38.61" y2="23.93"/><line class="cls-4" x1="14" y1="37.85" x2="12.28" y2="32.64"/><line class="cls-4" x1="13.16" y1="17.15" x2="15.93" y2="13.89"/><line class="cls-4" x1="34.69" y1="21.86" x2="34.25" y2="27.35"/><line class="cls-4" x1="21.5" y1="23.35" x2="23.41" y2="18.74"/><line class="cls-4" x1="25.72" y1="42.06" x2="24.3" y2="46.09"/><line class="cls-4" x1="31.69" y1="41.64" x2="35" y2="44.35"/><line class="cls-4" x1="16.34" y1="21.93" x2="19" y2="26.6"/><line class="cls-4" x1="25.13" y1="55.12" x2="28.77" y2="52.87"/><line class="cls-4" x1="14.98" y1="28.92" x2="10.85" y2="27.81"/><line class="cls-4" x1="14.37" y1="20.32" x2="12.75" y2="23.35"/><line class="cls-4" x1="45.75" y1="5.85" x2="46" y2="11"/><line class="cls-4" x1="30.46" y1="3.36" x2="33.77" y2="6.07"/><line class="cls-4" x1="25.25" y1="5.35" x2="20.96" y2="8.34"/><line class="cls-4" x1="13.76" y1="2.28" x2="17.5" y2="4.85"/><line class="cls-4" x1="27.85" y1="16.5" x2="30" y2="20.2"/><line class="cls-4" x1="30" y1="9.1" x2="29.45" y2="12.48"/><line class="cls-4" x1="33.31" y1="8.65" x2="37.23" y2="10.36"/><line class="cls-4" x1="25.51" y1="9.77" x2="27.71" y2="6.11"/><line class="cls-4" x1="48.25" y1="21.1" x2="44.41" y2="24.49"/><line class="cls-4" x1="17.75" y1="19.6" x2="19.65" y2="14.7"/><line class="cls-4" x1="16.67" y1="8.58" x2="19.71" y2="11.59"/><line class="cls-4" x1="42.22" y1="4.71" x2="40" y2="8.6"/><line class="cls-4" x1="44.5" y1="15.09" x2="44.59" y2="19.37"/><line class="cls-4" x1="40.62" y1="12.39" x2="44.88" y2="12.6"/><line class="cls-4" x1="25.86" y1="12.96" x2="22.56" y2="15.68"/><line class="cls-4" x1="45.25" y1="30.68" x2="43.56" y2="34.61"/><line class="cls-4" x1="50.08" y1="38.59" x2="50.8" y2="42.8"/><line class="cls-4" x1="50.7" y1="33.6" x2="52.28" y2="37.58"/><line class="cls-4" x1="50.74" y1="46.68" x2="47.45" y2="49.41"/><line class="cls-4" x1="52.6" y1="50.24" x2="54.81" y2="46.58"/><line class="cls-4" x1="43.48" y1="45.25" x2="44.5" y2="50.35"/><line class="cls-4" x1="54.61" y1="23.34" x2="50.35" y2="23.02"/><line class="cls-4" x1="56.36" y1="40.21" x2="53.08" y2="42.94"/><line class="cls-4" x1="47.65" y1="36.43" x2="45.85" y2="40.31"/><line class="cls-4" x1="53.43" y1="26.2" x2="56.59" y2="29.08"/><line class="cls-4" x1="7.75" y1="5.35" x2="5.03" y2="8.35"/><line class="cls-4" x1="14.01" y1="10.21" x2="10.71" y2="12.92"/><line class="cls-4" x1="11.18" y1="2.54" x2="12.41" y2="6.64"/><line class="cls-4" x1="47.75" y1="30.75" x2="52" y2="31.23"/><line class="cls-4" x1="6.75" y1="47.81" x2="5.07" y2="51.74"/><line class="cls-4" x1="8.29" y1="52.97" x2="5" y2="55.7"/><line class="cls-4" x1="6.13" y1="29.9" x2="9.42" y2="32.64"/><line class="cls-4" x1="48.93" y1="7.12" x2="52.57" y2="4.87"/><line class="cls-4" x1="50.22" y1="9.62" x2="48.8" y2="13.65"/><line class="cls-4" x1="0.51" y1="14.48" x2="4.66" y2="13.45"/><line class="cls-4" x1="2.51" y1="28.91" x2="4.73" y2="25.25"/><line class="cls-4" x1="5.56" y1="18.33" x2="2.28" y2="21.06"/><line class="cls-4" x1="7.34" y1="14.93" x2="9.5" y2="18.6"/><line class="cls-4" x1="5.75" y1="21.1" x2="8.49" y2="25.63"/><line class="cls-4" x1="4.01" y1="32.39" x2="3.22" y2="36.59"/><line class="cls-4" x1="9.5" y1="35.6" x2="5.49" y2="38.68"/><line class="cls-4" x1="11.45" y1="49.91" x2="11.77" y2="54.17"/><line class="cls-4" x1="34.75" y1="12.6" x2="30.81" y2="15.89"/><line class="cls-4" x1="37.38" y1="13.27" x2="39.53" y2="16.97"/><line class="cls-4" x1="33.31" y1="17.56" x2="37.13" y2="19.48"/><line class="cls-4" x1="28.46" y1="36.85" x2="25.16" y2="39.56"/><line class="cls-4" x1="20.2" y1="44.7" x2="16.23" y2="46.28"/><line class="cls-4" x1="20" y1="50.1" x2="22" y2="54.35"/><line class="cls-4" x1="36.25" y1="47.35" x2="40.26" y2="48.82"/><line class="cls-4" x1="37" y1="3.1" x2="36.59" y2="7.48"/><line class="cls-4" x1="40.85" y1="41.63" x2="39.8" y2="45.78"/><line class="cls-4" x1="36.17" y1="49.7" x2="32.07" y2="50.93"/><line class="cls-4" x1="32.5" y1="23.6" x2="28.66" y2="27.73"/><line class="cls-4" x1="49.95" y1="51.35" x2="51.63" y2="55.28"/><line class="cls-4" x1="56.21" y1="36.53" x2="59.51" y2="39.24"/><line class="cls-4" x1="56.96" y1="46.23" x2="60.26" y2="48.94"/><line class="cls-4" x1="54.21" y1="32.17" x2="58.32" y2="30.99"/><line class="cls-4" x1="56.44" y1="21.41" x2="58.59" y2="25.1"/><line class="cls-4" x1="58.11" y1="14.48" x2="62.26" y2="13.45"/><line class="cls-4" x1="59" y1="51.6" x2="55.71" y2="54.33"/><line class="cls-4" x1="51.15" y1="14.55" x2="52.83" y2="18.48"/><line class="cls-4" x1="60.33" y1="42.9" x2="56.15" y2="43.82"/><line class="cls-4" x1="50.93" y1="26.1" x2="45.75" y2="27.35"/><line class="cls-4" x1="6.07" y1="11.21" x2="9.6" y2="8.8"/><line class="cls-4" x1="45.04" y1="42.43" x2="48.04" y2="45.48"/><line class="cls-4" x1="53.09" y1="8.66" x2="55.09" y2="12.44"/><line class="cls-4" x1="59.06" y1="17.93" x2="54.8" y2="17.6"/><line class="cls-4" x1="26.36" y1="19.81" x2="27.5" y2="24.85"/><line class="cls-4" x1="42.16" y1="36.41" x2="43" y2="40.6"/><line class="cls-4" x1="47.21" y1="17.96" x2="50.96" y2="20.03"/><line class="cls-4" x1="35" y1="54.35" x2="31.97" y2="53.38"/><line class="cls-4" x1="20.65" y1="1.85" x2="20.2" y2="6.1"/><line class="cls-4" x1="2" y1="5.6" x2="3" y2="10.85"/><line class="cls-4" x1="56.25" y1="8.1" x2="57.74" y2="4.1"/><line class="cls-4" x1="47.75" y1="52.73" x2="46" y2="56.6"/><line class="cls-4" x1="44.33" y1="59.77" x2="40.66" y2="57.58"/><line class="cls-4" x1="29.5" y1="55.2" x2="27.71" y2="60.69"/><line class="cls-4" x1="21.5" y1="56.45" x2="24.5" y2="60.7"/><line class="cls-4" x1="50.93" y1="57.37" x2="47.63" y2="60.08"/><line class="cls-4" x1="8.53" y1="55.83" x2="7.6" y2="60"/><line class="cls-4" x1="15" y1="55.6" x2="11.75" y2="57.95"/><line class="cls-4" x1="1.6" y1="55.4" x2="2.4" y2="59.6"/><line class="cls-4" x1="54" y1="60.4" x2="56.21" y2="56.74"/><line class="cls-4" x1="34" y1="60.7" x2="33.97" y2="57.43"/><line class="cls-4" x1="16.91" y1="54.14" x2="17.62" y2="58.35"/><line class="cls-4" x1="37.15" y1="55.8" x2="39" y2="59.1"/><line class="cls-4" x1="-1.39" y1="36.53" x2="1.91" y2="39.24"/><line class="cls-4" x1="-0.64" y1="46.23" x2="2.66" y2="48.94"/><line class="cls-4" x1="-3.38" y1="32.17" x2="0.72" y2="30.99"/><line class="cls-4" x1="-1.16" y1="21.41" x2="0.99" y2="25.1"/><line class="cls-4" x1="0.51" y1="14.48" x2="4.66" y2="13.45"/><line class="cls-4" x1="1.4" y1="51.6" x2="-1.89" y2="54.33"/><line class="cls-4" x1="2.73" y1="42.9" x2="-1.45" y2="43.82"/><line class="cls-4" x1="1.46" y1="17.93" x2="-2.8" y2="17.6"/><line class="cls-4" x1="-1.35" y1="8.1" x2="0.14" y2="4.1"/><line class="cls-4" x1="44.33" y1="2.17" x2="40.66" y2="-0.02"/><line class="cls-4" x1="29.5" y1="-2.4" x2="27.71" y2="3.09"/><line class="cls-4" x1="21.5" y1="-1.15" x2="24.5" y2="3.1"/><line class="cls-4" x1="50.93" y1="-0.23" x2="47.63" y2="2.48"/><line class="cls-4" x1="8.53" y1="-1.77" x2="7.6" y2="2.4"/><line class="cls-4" x1="15" y1="-2" x2="11.75" y2="0.35"/><line class="cls-4" x1="1.6" y1="-2.2" x2="2.4" y2="2"/><line class="cls-4" x1="54" y1="2.8" x2="56.21" y2="-0.86"/><line class="cls-4" x1="34" y1="3.1" x2="33.97" y2="-0.17"/><line class="cls-4" x1="16.91" y1="-3.46" x2="17.62" y2="0.75"/><line class="cls-4" x1="37.15" y1="-1.8" x2="39" y2="1.5"/></pattern><pattern id="_10_dpi_40_" data-name="10 dpi 40%" width="28.8" height="28.8" patternTransform="translate(32.95 9.7)" patternUnits="userSpaceOnUse" viewBox="0 0 28.8 28.8"><rect class="cls-1" width="28.8" height="28.8"/><path class="cls-2" d="M28.8,31.68a2.88,2.88,0,1,0-2.88-2.88A2.88,2.88,0,0,0,28.8,31.68Z"/><path class="cls-2" d="M14.4,31.68a2.88,2.88,0,1,0-2.88-2.88A2.88,2.88,0,0,0,14.4,31.68Z"/><path class="cls-2" d="M28.8,17.28a2.88,2.88,0,1,0-2.88-2.88A2.88,2.88,0,0,0,28.8,17.28Z"/><path class="cls-2" d="M14.4,17.28a2.88,2.88,0,1,0-2.88-2.88A2.88,2.88,0,0,0,14.4,17.28Z"/><path class="cls-2" d="M7.2,24.48A2.88,2.88,0,1,0,4.32,21.6,2.88,2.88,0,0,0,7.2,24.48Z"/><path class="cls-2" d="M21.6,24.48a2.88,2.88,0,1,0-2.88-2.88A2.88,2.88,0,0,0,21.6,24.48Z"/><path class="cls-2" d="M7.2,10.08A2.88,2.88,0,1,0,4.32,7.2,2.88,2.88,0,0,0,7.2,10.08Z"/><path class="cls-2" d="M21.6,10.08A2.88,2.88,0,1,0,18.72,7.2,2.88,2.88,0,0,0,21.6,10.08Z"/><path class="cls-2" d="M0,31.68A2.88,2.88,0,0,0,2.88,28.8,2.88,2.88,0,0,0,0,25.92a2.88,2.88,0,0,0,0,5.76Z"/><path class="cls-2" d="M0,17.28A2.88,2.88,0,0,0,2.88,14.4,2.88,2.88,0,0,0,0,11.52a2.88,2.88,0,0,0,0,5.76Z"/><path class="cls-2" d="M28.8,2.88A2.88,2.88,0,0,0,31.68,0a2.88,2.88,0,0,0-5.76,0A2.88,2.88,0,0,0,28.8,2.88Z"/><path class="cls-2" d="M14.4,2.88A2.88,2.88,0,0,0,17.28,0a2.88,2.88,0,0,0-5.76,0A2.88,2.88,0,0,0,14.4,2.88Z"/><path class="cls-2" d="M0,2.88A2.88,2.88,0,0,0,2.88,0,2.88,2.88,0,0,0,0-2.88,2.88,2.88,0,0,0-2.88,0,2.88,2.88,0,0,0,0,2.88Z"/></pattern><pattern id="_10_lpi_50_" data-name="10 lpi 50%" width="72" height="72" patternTransform="translate(55.48 69.08)" patternUnits="userSpaceOnUse" viewBox="0 0 72 72"><rect class="cls-1" width="72" height="72"/><line class="cls-3" x1="71.75" y1="68.4" x2="144.25" y2="68.4"/><line class="cls-3" x1="71.75" y1="54" x2="144.25" y2="54"/><line class="cls-3" x1="71.75" y1="39.6" x2="144.25" y2="39.6"/><line class="cls-3" x1="71.75" y1="25.2" x2="144.25" y2="25.2"/><line class="cls-3" x1="71.75" y1="10.8" x2="144.25" y2="10.8"/><line class="cls-3" x1="71.75" y1="61.2" x2="144.25" y2="61.2"/><line class="cls-3" x1="71.75" y1="46.8" x2="144.25" y2="46.8"/><line class="cls-3" x1="71.75" y1="32.4" x2="144.25" y2="32.4"/><line class="cls-3" x1="71.75" y1="18" x2="144.25" y2="18"/><line class="cls-3" x1="71.75" y1="3.6" x2="144.25" y2="3.6"/><line class="cls-3" x1="-0.25" y1="68.4" x2="72.25" y2="68.4"/><line class="cls-3" x1="-0.25" y1="54" x2="72.25" y2="54"/><line class="cls-3" x1="-0.25" y1="39.6" x2="72.25" y2="39.6"/><line class="cls-3" x1="-0.25" y1="25.2" x2="72.25" y2="25.2"/><line class="cls-3" x1="-0.25" y1="10.8" x2="72.25" y2="10.8"/><line class="cls-3" x1="-0.25" y1="61.2" x2="72.25" y2="61.2"/><line class="cls-3" x1="-0.25" y1="46.8" x2="72.25" y2="46.8"/><line class="cls-3" x1="-0.25" y1="32.4" x2="72.25" y2="32.4"/><line class="cls-3" x1="-0.25" y1="18" x2="72.25" y2="18"/><line class="cls-3" x1="-0.25" y1="3.6" x2="72.25" y2="3.6"/><line class="cls-3" x1="-72.25" y1="68.4" x2="0.25" y2="68.4"/><line class="cls-3" x1="-72.25" y1="54" x2="0.25" y2="54"/><line class="cls-3" x1="-72.25" y1="39.6" x2="0.25" y2="39.6"/><line class="cls-3" x1="-72.25" y1="25.2" x2="0.25" y2="25.2"/><line class="cls-3" x1="-72.25" y1="10.8" x2="0.25" y2="10.8"/><line class="cls-3" x1="-72.25" y1="61.2" x2="0.25" y2="61.2"/><line class="cls-3" x1="-72.25" y1="46.8" x2="0.25" y2="46.8"/><line class="cls-3" x1="-72.25" y1="32.4" x2="0.25" y2="32.4"/><line class="cls-3" x1="-72.25" y1="18" x2="0.25" y2="18"/><line class="cls-3" x1="-72.25" y1="3.6" x2="0.25" y2="3.6"/></pattern><pattern id="_10_dpi_40_3" data-name="10 dpi 40%" width="28.8" height="28.8" patternTransform="translate(9.57 4.58)" patternUnits="userSpaceOnUse" viewBox="0 0 28.8 28.8"><rect class="cls-1" width="28.8" height="28.8"/><path class="cls-2" d="M28.8,31.68a2.88,2.88,0,1,0-2.88-2.88A2.88,2.88,0,0,0,28.8,31.68Z"/><path class="cls-2" d="M14.4,31.68a2.88,2.88,0,1,0-2.88-2.88A2.88,2.88,0,0,0,14.4,31.68Z"/><path class="cls-2" d="M28.8,17.28a2.88,2.88,0,1,0-2.88-2.88A2.88,2.88,0,0,0,28.8,17.28Z"/><path class="cls-2" d="M14.4,17.28a2.88,2.88,0,1,0-2.88-2.88A2.88,2.88,0,0,0,14.4,17.28Z"/><path class="cls-2" d="M7.2,24.48A2.88,2.88,0,1,0,4.32,21.6,2.88,2.88,0,0,0,7.2,24.48Z"/><path class="cls-2" d="M21.6,24.48a2.88,2.88,0,1,0-2.88-2.88A2.88,2.88,0,0,0,21.6,24.48Z"/><path class="cls-2" d="M7.2,10.08A2.88,2.88,0,1,0,4.32,7.2,2.88,2.88,0,0,0,7.2,10.08Z"/><path class="cls-2" d="M21.6,10.08A2.88,2.88,0,1,0,18.72,7.2,2.88,2.88,0,0,0,21.6,10.08Z"/><path class="cls-2" d="M0,31.68A2.88,2.88,0,0,0,2.88,28.8,2.88,2.88,0,0,0,0,25.92a2.88,2.88,0,0,0,0,5.76Z"/><path class="cls-2" d="M0,17.28A2.88,2.88,0,0,0,2.88,14.4,2.88,2.88,0,0,0,0,11.52a2.88,2.88,0,0,0,0,5.76Z"/><path class="cls-2" d="M28.8,2.88A2.88,2.88,0,0,0,31.68,0a2.88,2.88,0,0,0-5.76,0A2.88,2.88,0,0,0,28.8,2.88Z"/><path class="cls-2" d="M14.4,2.88A2.88,2.88,0,0,0,17.28,0a2.88,2.88,0,0,0-5.76,0A2.88,2.88,0,0,0,14.4,2.88Z"/><path class="cls-2" d="M0,2.88A2.88,2.88,0,0,0,2.88,0,2.88,2.88,0,0,0,0-2.88,2.88,2.88,0,0,0-2.88,0,2.88,2.88,0,0,0,0,2.88Z"/></pattern><pattern id="_10_lpi_50_3" data-name="10 lpi 50%" width="72" height="72" patternUnits="userSpaceOnUse" viewBox="0 0 72 72"><rect class="cls-1" width="72" height="72"/><line class="cls-3" x1="71.75" y1="68.4" x2="144.25" y2="68.4"/><line class="cls-3" x1="71.75" y1="54" x2="144.25" y2="54"/><line class="cls-3" x1="71.75" y1="39.6" x2="144.25" y2="39.6"/><line class="cls-3" x1="71.75" y1="25.2" x2="144.25" y2="25.2"/><line class="cls-3" x1="71.75" y1="10.8" x2="144.25" y2="10.8"/><line class="cls-3" x1="71.75" y1="61.2" x2="144.25" y2="61.2"/><line class="cls-3" x1="71.75" y1="46.8" x2="144.25" y2="46.8"/><line class="cls-3" x1="71.75" y1="32.4" x2="144.25" y2="32.4"/><line class="cls-3" x1="71.75" y1="18" x2="144.25" y2="18"/><line class="cls-3" x1="71.75" y1="3.6" x2="144.25" y2="3.6"/><line class="cls-3" x1="-0.25" y1="68.4" x2="72.25" y2="68.4"/><line class="cls-3" x1="-0.25" y1="54" x2="72.25" y2="54"/><line class="cls-3" x1="-0.25" y1="39.6" x2="72.25" y2="39.6"/><line class="cls-3" x1="-0.25" y1="25.2" x2="72.25" y2="25.2"/><line class="cls-3" x1="-0.25" y1="10.8" x2="72.25" y2="10.8"/><line class="cls-3" x1="-0.25" y1="61.2" x2="72.25" y2="61.2"/><line class="cls-3" x1="-0.25" y1="46.8" x2="72.25" y2="46.8"/><line class="cls-3" x1="-0.25" y1="32.4" x2="72.25" y2="32.4"/><line class="cls-3" x1="-0.25" y1="18" x2="72.25" y2="18"/><line class="cls-3" x1="-0.25" y1="3.6" x2="72.25" y2="3.6"/><line class="cls-3" x1="-72.25" y1="68.4" x2="0.25" y2="68.4"/><line class="cls-3" x1="-72.25" y1="54" x2="0.25" y2="54"/><line class="cls-3" x1="-72.25" y1="39.6" x2="0.25" y2="39.6"/><line class="cls-3" x1="-72.25" y1="25.2" x2="0.25" y2="25.2"/><line class="cls-3" x1="-72.25" y1="10.8" x2="0.25" y2="10.8"/><line class="cls-3" x1="-72.25" y1="61.2" x2="0.25" y2="61.2"/><line class="cls-3" x1="-72.25" y1="46.8" x2="0.25" y2="46.8"/><line class="cls-3" x1="-72.25" y1="32.4" x2="0.25" y2="32.4"/><line class="cls-3" x1="-72.25" y1="18" x2="0.25" y2="18"/><line class="cls-3" x1="-72.25" y1="3.6" x2="0.25" y2="3.6"/></pattern></defs><g id="Layer_2" data-name="Layer 2"><g id="OBJECTS"><rect class="cls-5" x="251.47" y="15.06" width="77.52" height="219.52"/><rect class="cls-5" x="179.34" y="379.78" width="168.65" height="77.52"/><rect class="cls-5" y="116.36" width="84.6" height="77.52"/><rect class="cls-6" x="357.4" y="175.07" width="38.42" height="38.42" transform="translate(-1.03 2.01) rotate(-0.31)"/><rect class="cls-7" x="362.74" y="242.37" width="53" height="53"/><circle class="cls-8" cx="190.37" cy="140.78" r="22.39" transform="translate(9.61 293.71) rotate(-76.72)"/><circle class="cls-8" cx="234.84" cy="34.39" r="34.39" transform="translate(44.47 176.13) rotate(-45)"/><polygon class="cls-6" points="56.14 144.84 88.57 88.67 121 144.84 56.14 144.84"/><rect class="cls-9" x="358.74" y="34.39" width="44.25" height="81.02"/><circle class="cls-10" cx="140.96" cy="209.52" r="32.85" transform="translate(-106.87 161.04) rotate(-45)"/><rect class="cls-9" x="120.37" y="300.61" width="43.49" height="43.49"/><polygon class="cls-8" points="470.32 423.02 434.44 485.17 398.56 423.02 470.32 423.02"/><circle class="cls-6" cx="336.41" cy="502.08" r="29.11" transform="translate(-228.91 715.79) rotate(-76.88)"/><rect class="cls-10" x="394.32" y="319.72" width="62.33" height="8.44"/><rect class="cls-10" x="394.32" y="333.68" width="62.33" height="8.44"/><rect class="cls-10" x="394.32" y="347.64" width="62.33" height="8.44"/><polygon class="cls-7" points="22.14 416.12 61.67 347.64 101.2 416.12 22.14 416.12"/><rect x="75.25" y="364.02" width="4.84" height="35.73"/><rect x="83.26" y="364.02" width="4.84" height="35.73"/><rect x="91.26" y="364.02" width="4.84" height="35.73"/><rect x="340.88" y="199.86" width="35.73" height="4.84"/><rect x="340.88" y="191.86" width="35.73" height="4.84"/><rect x="340.88" y="183.85" width="35.73" height="4.84"/><path class="cls-9" d="M83.6,40A30.73,30.73,0,1,1,52.87,9.27,30.73,30.73,0,0,1,83.6,40Z"/><rect x="71.8" y="40" width="4.84" height="35.73"/><rect x="79.8" y="40" width="4.84" height="35.73"/><rect x="87.8" y="40" width="4.84" height="35.73"/><path class="cls-11" d="M174.06,228.57a25.33,25.33,0,1,1-25.33-25.33A25.34,25.34,0,0,1,174.06,228.57Z"/><rect class="cls-12" x="130.16" y="312.61" width="54.15" height="54.15"/><polygon points="93.1 137.52 112.58 103.78 132.06 137.52 93.1 137.52"/><polygon class="cls-13" points="445.69 439.26 412.56 496.65 379.42 439.26 445.69 439.26"/><polygon points="164.06 62.7 153.39 62.7 153.39 52.03 145.39 52.03 145.39 62.7 134.73 62.7 134.73 70.7 145.39 70.7 145.39 81.36 153.39 81.36 153.39 70.7 164.06 70.7 164.06 62.7"/><polygon points="438.32 144.7 427.66 144.7 427.66 134.03 419.66 134.03 419.66 144.7 408.99 144.7 408.99 152.7 419.66 152.7 419.66 163.37 427.66 163.37 427.66 152.7 438.32 152.7 438.32 144.7"/><polygon points="346.56 333.17 335.89 333.17 335.89 322.5 327.89 322.5 327.89 333.17 317.22 333.17 317.22 341.17 327.89 341.17 327.89 351.84 335.89 351.84 335.89 341.17 346.56 341.17 346.56 333.17"/><polygon points="149.39 454.29 138.73 454.29 138.73 443.62 130.73 443.62 130.73 454.29 120.06 454.29 120.06 462.29 130.73 462.29 130.73 472.96 138.73 472.96 138.73 462.29 149.39 462.29 149.39 454.29"/><rect class="cls-14" x="354.91" y="265.08" width="38" height="38"/><path class="cls-14" d="M227.11,159a18.34,18.34,0,1,1-18.34-18.33A18.34,18.34,0,0,1,227.11,159Z"/><path class="cls-14" d="M364.74,64.65c0,7.93-12,7.93-12,15.86s12,7.94,12,15.87-12,7.93-12,15.87,12,7.93,12,15.87-12,7.93-12,15.86"/><path class="cls-14" d="M184.33,282.08c7.93,0,7.93,12,15.86,12s7.94-12,15.87-12,7.93,12,15.87,12,7.93-12,15.87-12,7.93,12,15.87,12"/><path class="cls-14" d="M213.55,301.71c7.93,0,7.93,12,15.86,12s7.93-12,15.87-12,7.93,12,15.86,12,7.94-12,15.87-12,7.94,12,15.87,12"/><path class="cls-14" d="M388.91,45.32c0,7.93-12,7.93-12,15.86s12,7.93,12,15.87-12,7.93-12,15.86,12,7.94,12,15.87-12,7.94-12,15.87"/><path class="cls-15" d="M280.64,38a22.9,22.9,0,1,1-22.9-22.9A22.9,22.9,0,0,1,280.64,38Z"/><circle cx="94.44" cy="282.08" r="13.74"/><path d="M437.4,353.64a13.74,13.74,0,1,1-13.74-13.74A13.75,13.75,0,0,1,437.4,353.64Z"/><path class="cls-14" d="M373.91,487.73a17.41,17.41,0,1,1-17.41-17.41A17.41,17.41,0,0,1,373.91,487.73Z"/></g></g></svg>