<?xml version="1.0" encoding="utf-8"?>
<svg xmlns="http://www.w3.org/2000/svg" viewBox="0 0 24 24" width="96" height="96">
  <path d="M12 2C6.477 2 2 6.477 2 12C2 17.523 6.477 22 12 22C17.523 22 22 17.523 22 12C22 6.477 17.523 2 12 2 z M 12 4C16.418 4 20 7.582 20 12C20 16.418 16.418 20 12 20C7.582 20 4 16.418 4 12C4 7.582 7.582 4 12 4 z M 8.5 8 A 1.5 1.5 0 0 0 7 9.5 A 1.5 1.5 0 0 0 8.5 11 A 1.5 1.5 0 0 0 10 9.5 A 1.5 1.5 0 0 0 8.5 8 z M 15.5 8 A 1.5 1.5 0 0 0 14 9.5 A 1.5 1.5 0 0 0 15.5 11 A 1.5 1.5 0 0 0 17 9.5 A 1.5 1.5 0 0 0 15.5 8 z M 6.890625 14C7.690625 16.04 9.67 17.5 12 17.5C14.33 17.5 16.309375 16.04 17.109375 14L6.890625 14 z" fill="#FFFFFF" />
</svg>